<svg xmlns="http://www.w3.org/2000/svg" viewBox="0 0 32.6 31.8"><defs><style>.cls-1{fill-rule:evenodd;}</style></defs><title>Asset 1</title><g id="Layer_2" data-name="Layer 2"><g id="Layer_1-2" data-name="Layer 1"><path class="cls-1" d="M16.3,0a16.3,16.3,0,0,0-5.1,31.7c.8.1,1.1-.4,1.1-.8s0-1.4,0-2.8C7.7,29.2,6.7,26,6.7,26a4.3,4.3,0,0,0-1.8-2.4c-1.5-1,.1-1,.1-1a3.4,3.4,0,0,1,2.5,1.7,3.5,3.5,0,0,0,4.7,1.4,3.5,3.5,0,0,1,1-2.2c-3.6-.4-7.4-1.8-7.4-8.1a6.3,6.3,0,0,1,1.7-4.4,5.9,5.9,0,0,1,.2-4.3s1.4-.4,4.5,1.7a15.4,15.4,0,0,1,8.2,0c3.1-2.1,4.5-1.7,4.5-1.7a5.9,5.9,0,0,1,.2,4.3,6.3,6.3,0,0,1,1.7,4.4c0,6.3-3.8,7.6-7.4,8a3.9,3.9,0,0,1,1.1,3c0,2.2,0,3.9,0,4.5s.3.9,1.1.8A16.3,16.3,0,0,0,16.3,0Z"/></g></g></svg>