<?xml version="1.0" standalone="no"?>
<!DOCTYPE svg PUBLIC "-//W3C//DTD SVG 20010904//EN"
 "http://www.w3.org/TR/2001/REC-SVG-20010904/DTD/svg10.dtd">
<svg version="1.0" xmlns="http://www.w3.org/2000/svg"
 width="352.000000pt" height="352.000000pt" viewBox="0 0 352.000000 352.000000"
 preserveAspectRatio="xMidYMid meet">
<metadata>
Created by potrace 1.11, written by Peter Selinger 2001-2013
</metadata>
<g transform="translate(0.000000,352.000000) scale(0.100000,-0.100000)"
fill="#000000" stroke="none">
<path d="M2523 3060 c-13 -15 -23 -36 -23 -46 0 -9 -12 -37 -26 -62 -15 -25
-28 -58 -29 -74 -2 -16 -10 -36 -18 -46 -9 -9 -17 -21 -19 -27 -2 -5 -6 -9
-10 -7 -7 2 -12 -21 -9 -40 0 -4 -6 -26 -15 -48 -9 -22 -17 -53 -19 -68 -3
-37 -25 -92 -36 -92 -6 0 -7 -15 -3 -35 5 -31 4 -35 -15 -35 -15 0 -21 -6 -21
-23 0 -13 -5 -28 -12 -35 -9 -9 -9 -12 0 -12 7 0 12 5 12 10 0 6 5 10 10 10
21 0 9 -30 -15 -36 -29 -7 -78 -71 -68 -88 4 -6 8 -6 11 2 2 7 10 12 19 12 8
0 13 -6 11 -12 -3 -7 -13 -13 -24 -13 -11 0 -33 -12 -49 -27 -23 -22 -26 -28
-12 -28 25 0 21 -18 -5 -22 -13 -2 -22 -9 -21 -16 2 -6 -2 -12 -7 -12 -6 0 -8
-10 -4 -24 3 -13 1 -27 -5 -31 -6 -3 -9 -11 -6 -16 4 -5 -1 -9 -9 -9 -15 0
-20 -16 -17 -52 1 -10 -3 -18 -9 -18 -6 0 -9 4 -5 9 3 5 1 12 -4 15 -12 8 -22
-20 -15 -39 4 -11 -3 -19 -25 -26 -23 -8 -34 -19 -38 -40 -3 -16 -9 -26 -13
-24 -5 3 -6 -3 -4 -12 3 -10 -6 -30 -21 -45 -14 -15 -21 -30 -15 -33 16 -10
12 -28 -5 -21 -10 4 -15 -1 -15 -14 0 -25 -20 -27 -21 -2 -1 23 -19 -34 -23
-75 -2 -17 -13 -43 -24 -58 -12 -15 -19 -32 -15 -38 4 -6 0 -8 -10 -4 -9 3
-18 0 -21 -8 -3 -8 -12 -12 -20 -9 -8 3 -17 1 -21 -5 -3 -6 1 -11 9 -11 22 0
20 -17 -4 -32 -11 -7 -20 -19 -20 -26 0 -9 -6 -12 -17 -7 -14 5 -15 3 -6 -6 9
-9 6 -20 -11 -48 -12 -20 -20 -43 -19 -52 3 -11 -5 -19 -21 -23 -25 -6 -41
-39 -38 -79 0 -9 -3 -15 -8 -12 -5 3 -20 0 -34 -6 -23 -11 -26 -18 -26 -61 0
-26 -4 -48 -9 -48 -17 0 -22 19 -11 40 13 24 7 26 -19 3 -11 -9 -18 -20 -15
-25 3 -4 2 -13 -2 -19 -4 -8 -9 -7 -15 2 -6 10 -9 7 -9 -11 0 -16 -8 -29 -22
-35 -13 -6 -33 -28 -46 -50 -13 -22 -22 -33 -19 -24 3 9 -1 16 -9 16 -20 0
-17 -20 6 -40 11 -9 20 -22 20 -29 -1 -7 -14 2 -29 20 -18 21 -31 29 -35 23
-4 -6 -4 -11 1 -11 4 0 0 -5 -9 -11 -10 -5 -18 -16 -18 -23 0 -7 -10 -12 -22
-12 -20 1 -23 -5 -26 -43 -3 -39 -5 -41 -17 -25 -19 27 -26 14 -15 -27 14 -48
12 -69 -5 -69 -11 0 -15 12 -15 48 0 55 -14 76 -42 61 -10 -5 -18 -17 -18 -26
0 -22 -49 -65 -66 -59 -21 8 -17 -3 16 -41 28 -32 38 -53 24 -53 -4 0 -13 8
-20 18 -13 16 -14 16 -7 -3 6 -18 5 -18 -10 -6 -9 7 -17 20 -17 27 0 8 -5 14
-11 14 -19 0 -38 -33 -39 -64 0 -16 -3 -27 -6 -23 -3 3 -24 -1 -46 -9 -27 -9
-45 -11 -52 -5 -8 7 -16 3 -25 -10 -11 -19 -10 -20 8 -14 16 5 21 2 21 -12 -1
-24 -26 -57 -39 -49 -6 4 -18 -5 -27 -19 -19 -29 -44 -33 -44 -6 0 11 9 21 22
24 12 4 19 9 16 13 -4 3 -30 -2 -58 -11 -40 -13 -50 -20 -45 -34 3 -11 -3 -25
-15 -36 -11 -10 -20 -13 -20 -7 0 7 -7 12 -16 12 -10 0 -14 -6 -10 -15 3 -8
-1 -21 -9 -29 -21 -20 -19 -24 9 -22 13 0 22 4 19 9 -2 4 7 7 21 7 16 0 26 6
26 15 0 18 36 39 45 25 10 -17 51 -11 70 10 10 11 24 20 30 20 7 0 18 7 25 15
7 8 16 12 21 9 5 -3 9 0 9 6 0 7 8 9 19 5 11 -3 21 0 24 8 3 8 26 18 52 21 49
8 108 55 125 102 6 14 21 26 37 30 15 4 45 25 66 46 32 33 41 37 54 27 13 -11
14 -10 12 7 -5 26 65 124 89 124 6 0 12 6 12 13 0 7 12 21 27 32 54 40 121
103 116 109 -4 3 -1 7 5 7 7 1 17 2 23 3 6 0 16 9 23 18 7 10 18 18 25 18 13
0 15 26 1 35 -11 7 -2 35 11 32 6 -1 22 21 37 48 15 28 37 61 49 74 12 13 19
29 17 36 -3 7 4 16 15 20 12 3 21 11 21 17 0 6 13 8 30 6 22 -3 29 -1 26 8 -3
8 0 11 9 8 14 -6 30 33 27 68 0 10 8 23 18 28 11 6 22 26 26 44 3 19 12 37 20
40 8 3 14 14 14 25 0 11 9 25 20 31 19 10 75 109 66 118 -3 2 6 13 20 24 13
11 32 34 40 51 9 18 25 42 36 54 22 23 17 59 -10 79 -11 8 -12 13 -4 18 7 4
12 2 12 -5 0 -23 42 25 91 105 27 44 45 82 40 86 -5 3 -2 14 6 25 13 17 15 17
9 2 -3 -11 -2 -16 5 -12 6 4 8 14 4 23 -3 8 3 23 16 35 16 15 18 21 8 28 -10
6 -7 19 14 57 15 27 28 66 29 86 2 20 7 36 11 36 15 0 37 28 37 48 0 11 3 22
8 24 10 4 52 95 52 113 0 8 4 15 10 15 5 0 7 6 4 13 -7 19 53 196 77 230 16
21 18 31 9 42 -7 9 -8 15 0 20 5 3 10 17 10 31 0 21 -4 24 -37 23 -29 0 -43
-7 -60 -29z m-863 -1782 c0 -4 -4 -8 -9 -8 -6 0 -12 4 -15 8 -3 5 1 9 9 9 8 0
15 -4 15 -9z m-469 -391 c-18 -18 -25 2 -10 30 14 26 14 26 17 4 2 -13 -1 -28
-7 -34z"/>
<path d="M2490 2226 c8 -7 211 -132 450 -276 239 -144 436 -264 438 -265 1 -1
-122 -80 -275 -176 -542 -338 -704 -441 -699 -446 7 -7 336 160 528 268 172
97 452 264 538 322 l51 34 -173 101 c-95 55 -222 128 -283 162 -120 67 -566
290 -580 290 -5 0 -3 -6 5 -14z"/>
<path d="M901 2129 c-277 -143 -783 -437 -866 -503 l-26 -21 183 -106 c399
-232 898 -487 843 -431 -5 6 -201 126 -435 267 -234 142 -430 262 -437 269 -9
8 49 49 235 165 474 297 707 444 717 452 31 28 -43 -3 -214 -92z"/>
<path d="M1240 985 c0 -8 5 -15 10 -15 6 0 10 7 10 15 0 8 -4 15 -10 15 -5 0
-10 -7 -10 -15z"/>
<path d="M610 570 c-12 -7 -13 -15 -3 -40 10 -25 9 -30 -5 -30 -21 0 -10 -10
17 -15 19 -3 21 -1 15 18 -4 12 -12 25 -18 29 -7 5 -5 8 5 8 14 0 29 19 29 36
0 7 -25 4 -40 -6z"/>
<path d="M675 550 c-3 -5 -1 -10 4 -10 6 0 11 5 11 10 0 6 -2 10 -4 10 -3 0
-8 -4 -11 -10z"/>
<path d="M415 510 c3 -5 11 -10 16 -10 6 0 7 5 4 10 -3 6 -11 10 -16 10 -6 0
-7 -4 -4 -10z"/>
<path d="M490 510 c0 -5 7 -7 15 -4 8 4 15 8 15 10 0 2 -7 4 -15 4 -8 0 -15
-4 -15 -10z"/>
<path d="M555 507 c-8 -19 -2 -31 13 -26 5 2 6 13 2 24 -7 19 -8 19 -15 2z"/>
<path d="M200 472 c0 -5 14 -7 30 -4 17 2 30 6 30 8 0 2 -13 4 -30 4 -16 0
-30 -4 -30 -8z"/>
<path d="M307 446 c-4 -10 -1 -13 8 -9 8 3 12 9 9 14 -7 12 -11 11 -17 -5z"/>
<path d="M415 450 c-3 -5 -1 -10 4 -10 6 0 11 5 11 10 0 6 -2 10 -4 10 -3 0
-8 -4 -11 -10z"/>
<path d="M520 439 c0 -5 5 -7 10 -4 6 3 10 8 10 11 0 2 -4 4 -10 4 -5 0 -10
-5 -10 -11z"/>
</g>
</svg>
