<svg xmlns="http://www.w3.org/2000/svg" width="350.78" height="268.54" viewBox="0 0 350.78 268.54"><defs><style>.cls-1{fill:#231f20;}</style></defs><title>Site Logo</title><g id="Layer_1" data-name="Layer 1"><path class="cls-1" d="M173.83,427.87c-.59-.16-.49,1.11-.6,1.33C174.27,429,173.84,427.55,173.83,427.87Z" transform="translate(-168.04 -162.57)"/><polygon class="cls-1" points="15.8 263.07 15.61 263.58 17.09 262.36 15.8 263.07"/><path class="cls-1" d="M193,425.71c-.9-2.12-3.3.41-4.94-.38l-.26-.49-.75,1.72C189,426.32,191.58,425.15,193,425.71Z" transform="translate(-168.04 -162.57)"/><path class="cls-1" d="M198.11,430.15c-.35-.82,1-.77-1.18-.2a1.75,1.75,0,0,1,.22.2A5,5,0,0,1,198.11,430.15Z" transform="translate(-168.04 -162.57)"/><path class="cls-1" d="M197.15,430.15c-1,.11.68.67,0,0Z" transform="translate(-168.04 -162.57)"/><path class="cls-1" d="M201.68,429.39l-1.25.83c.31.47,1.48.5,1.07.89C202.82,430.6,202.5,430.13,201.68,429.39Z" transform="translate(-168.04 -162.57)"/><path class="cls-1" d="M202.78,427.73l-.64.37C202.27,428.3,202.46,428.35,202.78,427.73Z" transform="translate(-168.04 -162.57)"/><path class="cls-1" d="M200.77,428.87l1.37-.77c-.21-.33-.29-1-.63.29C201.58,427.75,201.34,428.38,200.77,428.87Z" transform="translate(-168.04 -162.57)"/><path class="cls-1" d="M199.94,428.6c-.76-.42-1.7-.65-.46-1.47C197.05,427.56,197.48,429.05,199.94,428.6Z" transform="translate(-168.04 -162.57)"/><path class="cls-1" d="M193.39,423.49l-1-.61-.8.74C192,423.25,193.47,424.16,193.39,423.49Z" transform="translate(-168.04 -162.57)"/><path class="cls-1" d="M209.89,429.67c0-.46-.59-1.15-.76-1.72l-.89.63C208.78,428.85,209.74,429,209.89,429.67Z" transform="translate(-168.04 -162.57)"/><path class="cls-1" d="M209.14,428l1.32-1C209.18,427.06,209,427.46,209.14,428Z" transform="translate(-168.04 -162.57)"/><path class="cls-1" d="M202.81,425.34c-.72.61-1.45,1.23-2.18,1.82.89-.61,1.76-1.25,2.63-1.88Z" transform="translate(-168.04 -162.57)"/><polygon class="cls-1" points="47.34 266.34 46.69 267.52 47.88 265.7 47.34 266.34"/><path class="cls-1" d="M219,428.1c-.44,1,1.1,1.31.56,1.95a5.18,5.18,0,0,0,2.28-2.06A2.63,2.63,0,0,1,219,428.1Z" transform="translate(-168.04 -162.57)"/><path class="cls-1" d="M222.86,426.76a7.65,7.65,0,0,0-1.06,1.23A3.78,3.78,0,0,0,222.86,426.76Z" transform="translate(-168.04 -162.57)"/><path class="cls-1" d="M212.9,426.88a1.9,1.9,0,0,0,1.31,1.1l-.75-1.17Z" transform="translate(-168.04 -162.57)"/><path class="cls-1" d="M213.43,426.77l0,0,1.21-.13Z" transform="translate(-168.04 -162.57)"/><path class="cls-1" d="M212.76,426.89h.14C212.83,426.76,212.79,426.72,212.76,426.89Z" transform="translate(-168.04 -162.57)"/><path class="cls-1" d="M206.6,426.14c.75-.81,2.36-1.76.59-2.66C206.7,424.42,207.72,424.93,206.6,426.14Z" transform="translate(-168.04 -162.57)"/><path class="cls-1" d="M211.84,425.41l-1.53-.08c.07.33.41.79,0,1.19Z" transform="translate(-168.04 -162.57)"/><polygon class="cls-1" points="44.47 262.33 43.8 262.83 44.36 262.86 44.47 262.33"/><path class="cls-1" d="M220.07,426.13a3.7,3.7,0,0,1,2-1.14,10.51,10.51,0,0,0-2.63.16C219.39,425.57,219.16,426.34,220.07,426.13Z" transform="translate(-168.04 -162.57)"/><path class="cls-1" d="M216.82,426.34l.13-.1C216.84,426.15,216.77,426.13,216.82,426.34Z" transform="translate(-168.04 -162.57)"/><path class="cls-1" d="M229.81,423.17l-.18-.19,0,.22Z" transform="translate(-168.04 -162.57)"/><path class="cls-1" d="M219.25,424.94a1.17,1.17,0,0,0-1.3.69,6.5,6.5,0,0,1,1.49-.48C219.45,425,219.44,424.84,219.25,424.94Z" transform="translate(-168.04 -162.57)"/><path class="cls-1" d="M224.93,425.69a7.3,7.3,0,0,0-1.26-.45C224.08,425.57,224.88,426,224.93,425.69Z" transform="translate(-168.04 -162.57)"/><path class="cls-1" d="M217.23,426.55l-.09.07C217.4,426.86,217.35,426.73,217.23,426.55Z" transform="translate(-168.04 -162.57)"/><path class="cls-1" d="M217.23,426.55a3.74,3.74,0,0,0,.71-.92,4.12,4.12,0,0,0-1,.61A1.56,1.56,0,0,1,217.23,426.55Z" transform="translate(-168.04 -162.57)"/><path class="cls-1" d="M229.94,414.63a1.83,1.83,0,0,1-2.78,1.78c-1.12,1.22.68,4.78,2.47,6.57-.09-.51-.2-1,1-2-.68-.49-3.54-.64-2.61-2,1.71-1.08,1.63,0,2.71.37-1.15-1.22,1.79-2.7.77-4.7-.45.42-.92.79-1.39,1.18C230,415.48,230.47,414.81,229.94,414.63Z" transform="translate(-168.04 -162.57)"/><path class="cls-1" d="M226.85,423.58l-.56.29a5.55,5.55,0,0,1,2.46,1c.86-.82,1-1.3.92-1.7l-3,.61Z" transform="translate(-168.04 -162.57)"/><path class="cls-1" d="M223.58,424.46c.2-1.37,1.49-2.21.31-3.39-1.71.46-1,1.32-1.91,2.09,2.76-.93-.66.88,1.54,1.15a6,6,0,0,1-1.47.67,9.47,9.47,0,0,1,1.6.26l-.08-.06h0v0c-.16-.13-.22-.22-.06-.16,0,0,0,0,.05,0a1.93,1.93,0,0,1,0-.5c.88.08.2.3,0,.5a1.64,1.64,0,0,0,0,.2h0l2.7-1.31A7.58,7.58,0,0,0,223.58,424.46Z" transform="translate(-168.04 -162.57)"/><path class="cls-1" d="M208.35,420.54a.47.47,0,0,1,.13.29C208.64,420.65,208.69,420.53,208.35,420.54Z" transform="translate(-168.04 -162.57)"/><path class="cls-1" d="M209.6,421.17c-.18.2-.28.74-1,.69-.62-.31-.07-.62-.16-1-.35.39-1.28,1.1,0,1.56l.18-.2c1.18.3,2.87,1.69,2.7,1.89A10.39,10.39,0,0,0,209.6,421.17Z" transform="translate(-168.04 -162.57)"/><path class="cls-1" d="M216.52,422.62l2.23-1-1.39-.89.18.65C216.16,421.32,216.59,422.08,216.52,422.62Z" transform="translate(-168.04 -162.57)"/><polygon class="cls-1" points="62.2 261.15 62.24 262.56 63.11 260.33 62.2 261.15"/><polygon class="cls-1" points="65.23 260.19 65.44 261.36 66.05 260.43 65.23 260.19"/><path class="cls-1" d="M352.87,304l.08-.75A2.08,2.08,0,0,0,352.87,304Z" transform="translate(-168.04 -162.57)"/><path class="cls-1" d="M350.13,308l.42.42C350.41,308.07,350.26,307.87,350.13,308Z" transform="translate(-168.04 -162.57)"/><path class="cls-1" d="M300.76,386.18c1.5.21,3.5.8,2.55-.15l-1.08-.8A2,2,0,0,1,300.76,386.18Z" transform="translate(-168.04 -162.57)"/><path class="cls-1" d="M331.69,344.31l-.49,0,.52,1.32Z" transform="translate(-168.04 -162.57)"/><path class="cls-1" d="M328,340.33l1.47-.46A4.33,4.33,0,0,0,328,340.33Z" transform="translate(-168.04 -162.57)"/><path class="cls-1" d="M365.51,280.59l-.76-1.34C364.14,280.32,365,280.18,365.51,280.59Z" transform="translate(-168.04 -162.57)"/><path class="cls-1" d="M263.16,410.49a5,5,0,0,0,2.35-.32C264.22,410,262.93,409.4,263.16,410.49Z" transform="translate(-168.04 -162.57)"/><path class="cls-1" d="M363.38,313.19c0-.49-.09-.78-.34-.93C363,312.74,363.06,313.09,363.38,313.19Z" transform="translate(-168.04 -162.57)"/><path class="cls-1" d="M267.79,408.95c-.2,0-.37,0-.56,0a4.83,4.83,0,0,1-1.72,1.27C266.47,410.29,267.44,410.16,267.79,408.95Z" transform="translate(-168.04 -162.57)"/><path class="cls-1" d="M407,193.37a2,2,0,0,1,.22-.15C407.07,193.14,407,193.23,407,193.37Z" transform="translate(-168.04 -162.57)"/><path class="cls-1" d="M428.73,170.71a6.16,6.16,0,0,1-.27,1.16A1.91,1.91,0,0,0,428.73,170.71Z" transform="translate(-168.04 -162.57)"/><path class="cls-1" d="M245.58,419.32c-.61.3-.05.17,0,0Z" transform="translate(-168.04 -162.57)"/><path class="cls-1" d="M240.8,415.55a.93.93,0,0,0,0-.68A1.18,1.18,0,0,1,240.8,415.55Z" transform="translate(-168.04 -162.57)"/><path class="cls-1" d="M269.52,398.69l.05,0C269.27,398.55,269.33,398.57,269.52,398.69Z" transform="translate(-168.04 -162.57)"/><path class="cls-1" d="M244.42,419.1a3.45,3.45,0,0,0,.94.08A3.67,3.67,0,0,0,244.42,419.1Z" transform="translate(-168.04 -162.57)"/><path class="cls-1" d="M244.76,419.63l-.6.08C244.15,419.94,244.27,420,244.76,419.63Z" transform="translate(-168.04 -162.57)"/><path class="cls-1" d="M246.44,418.93a3.12,3.12,0,0,1-1.07.24c.16,0,.23.09.21.14Z" transform="translate(-168.04 -162.57)"/><path class="cls-1" d="M390.17,242.73a1.35,1.35,0,0,1,.17-.07C390.12,241.84,390.08,242.14,390.17,242.73Z" transform="translate(-168.04 -162.57)"/><path class="cls-1" d="M304.41,365s0,.07,0,.1l.1,0Z" transform="translate(-168.04 -162.57)"/><path class="cls-1" d="M305.37,362.73c.43,1.83-.11,2.07-.86,2.32l3.12,2.21Z" transform="translate(-168.04 -162.57)"/><path class="cls-1" d="M358.78,293.95l-1.82.74c-.64-2.64.64-3.47-1.53-3.06,3.38,2.34-2.89,5.43.44,7.78l-1.28.43c.19-.23,0-.4.21-.63-2.73.68,1.67,2.86-.25,4.76-.76.6-1.6.82-1.67,0l-.27,2.27c-.39.46-.9-.06-.52-.51l-1.45,2.77-.09-.09a14.05,14.05,0,0,1,.62,2.76c-.93.33-.14-.57-.67-.69l-.14,2c-1.26,0-1.32-1.77-.53-2.68-4.27-.94.07,1.78-3.87,3.29l.5-1.63c-2.5-.45-2.53,1.06-4.74,1.73.86.08,5.06-.94,4.84,1.17-.55.26-1.07.74-1,2-1.19-.82-1.46.19-2.11,1.23l-1.52-1.18c-.32,1.4.54,1.88.78,3-1,1.1-2.4.47-3.62,0-1.62,1.74,2.88.07,1.54,2.56-1.77,1.15-2,2.72-2.45,5.31-1.36.71-.79-.9-1.53-.83l.47,1.9c-.21.22-.53-.15-.69-.33-.16,1.18,1.47,1.23.89,2.84,1.39,1.64-4.46.77-3.85,3.8-.74,0-.77-.92-1.45-1.26-.49,3.13-.58,2.55-.36,5.67l-2.21.69c2-.18,2.18,2.3,2.21,4.44a16.56,16.56,0,0,0,2,.07l-.87,2.65c-.44,0-.78-.59-1.12-1.43a6.58,6.58,0,0,0,0,.66c-1.13.25-1.67-.84-2.07-2,.49,0,1,0,1.5.05a6.57,6.57,0,0,0-2-3.13,1.68,1.68,0,0,1-.14,1c-.14-.33-.29-.59-.48-.66s-.05.41.05,1l-2-.94.56.66c-1,.57-2.11,1.1-3.17,1.64.08,3.19,1.11,6.87-.83,10.28-.52-1.76-1.76-1.87-3.1-3.16,2.14.55,1.36-2.7,2.93-3.91a.83.83,0,0,1-1.4-.52c-.31,1.27-.65,2.51-1,3.77-1.07-1.08-1.34-.22-2.41,0,2.68,1.52-.26,3.28-.58,4.92-.8-.63-1.31-1.58.05-2.66-3-.17.88,4.2-1.81,4.25.27-.32.54-.38.29-.86,0,1.34-2.21,2.6-2.45,1.57l.27-.32c-2.21,1.75-6,6-4.56,8.12a26.83,26.83,0,0,1-2.11-3q1.2,4.8,2.27,9.71c-1.18-1.9-6-4.56-5.13-7.06a2.79,2.79,0,0,0-2,2c.54-.07,3,1.57,2.66,2.13-2.92-.65-1.77-.16-4.71-.29.82-.11,2.56,3,1.68,3.61-.22-.5-2.32-2.47-2.27-3,.1,1.44.16,2.86.22,4.3.11-.9-1.79-2.23-2.87-2.56.64.32-1.78,1.45-2.1,2.17l1.36-.14c-2.59,1.58.77,5.55-1.7,7.36-.15-.78-2-3.9-3.45-3.27a51.25,51.25,0,0,1,1.43,5.24c.44,2.22.62,4.58-.08,5.95l-1-.46-1,2.18a77.86,77.86,0,0,1-.77-12.27c-1.36.09-1-.72-2.23.37-1-.37-.14-1.66.21-2l-3.43,1.88c1.36,1.5-1.13,3.42,0,4.66.74-1.39,1.42-2.83,2.11-4.23,1.36,1.46,1.55,6.09-1,7.45-1.05-.23-1.69-3.21-2.14-3.71.12.77-1.35,2.61-1.85,2.36l.32-1.56c-1.69.26-.48,3.68-3.12,3.13-.61.25-3-1.09-2.46,0,2.14,1.33,6.35,7.08,6.71,8.92-.29,0-4.13.14-5.38-.42-1.88-.93-1-4.48-2.61-5.28a2.7,2.7,0,0,1,.06,1.68c-.83,0-.69-1.58-1.79-.6.89,1.85-2.62,1.44.34,1.83-.91,1.26-1.52.46-2.9,1.43,1.16.85,1,4.64,0,5.88a2.83,2.83,0,0,0-1.11-1.1,20.49,20.49,0,0,1-3.58,1.35,15.76,15.76,0,0,0-3.43,1.26c-.46-.32-1.91-.22-1.82-1.27-.18.51-.18,1.3-.92,1.74-1.14-.43-.74-.69-.33-1s.84-.76-.2-1.41c.46,1.13-1.21,2.43-2,3.64,1.14,1.47,2.71-.89,3.42-2.15a5.91,5.91,0,0,1,.42,3.94,8.76,8.76,0,0,1-2.13,4c-1.87,1.61-1.63-1-1.84-.52-4.19,1.46-1.65,5.59-5.8,5.45-2-.94-1.3-2.94-2.05-3.89,1.51-1.31,3.08-.24,4.25-.82l-1.77-.05c.34-.74,1.33-1.62,2.16-1.48-.85-.41-2.57.27-4.52,1.07a19.05,19.05,0,0,1-6,1.58c-.36.74-1.15,1.58-.46,2,.31-.19.62-.37.93-.58.69.42.38,1,.08,1.54s-.61.89.15.95c-1,1.34-2.14,3.25-4.33,3.24l-1-1.62c.21.5,1.62.59,2-.13-.56,1.06-3.74-1.31-3.9,1.23l1.78.79c-1.11,1.31-2.31,3.72-4.26,3.71,1.33,1.49.34-.32,2.24,1.32-1.88-2.19,4.62-1.3,2-3.41,2.07,1.93,2.54.23,4.93,1.63-.26-.55-1-.88.6-1.13a2.49,2.49,0,0,1,.14-.62h.12l-.11,0c0-.11,0-.13,0,0a2.13,2.13,0,0,1-1.07-.6c.26-1.57,2.6-2.34,3.1-3.35,1-.07-.11.79.59,1.21l.76-1.46c.6,1.21,3.12,1.17,1.37,2.71l1.86-.68a3.76,3.76,0,0,0,3.65-1c1-.11,1.55-2.32,1.24-1l2.48-2,.17.29c2.83-1.21,4.63-4.68,8.8-4.21a6.37,6.37,0,0,1,3.16-2.13l.86.85c.93-1,4-1,3.89-2.32,1.43,1,2.9.3,4.27-.75s2.69-2.4,3.8-2.82l-.76-1.32a14.42,14.42,0,0,0,3.67-3.63l-.86-1c.76-1.84,4.07-1.73,6.17-3.4.16.52-.47.81-1,.84,2.2.31,3.22-1.18,4.12-2.7s1.72-3.07,3.52-3.13a1.37,1.37,0,0,1,1.36-1.09.3.3,0,0,0-.09.17,1.38,1.38,0,0,0,.24-.17c.39,0,.82,0,1.23-.08a3.4,3.4,0,0,0-1.11,0,7.21,7.21,0,0,0,1.38-1.81l1.2.89c0-.06.08-.09.12-.15,1-.1.07-.94-1-1.5a3.69,3.69,0,0,0,.27-1.36c2,1.35,1.11-2,3.41-.69-.37-1.28,2.53-3.39,1.13-5.6.24.23.53.19.21.5.86-.39,1.73-.79,1.85-1.87l1.53,1.1-.21-3.15c1.64,0,2.44.12,2.54,2,.6-3.59,1.14-2.23,1.42-5.47l.74.94c.61-.64.5-2.75,1.55-2.43,1.48.1,3.27-1.55,5.27-3.53s4.23-4.27,6.68-5.46c-3.24-1.63,2.74-.69.86-2.65.81.33,1.64.12,1.62,1.21,1.13-2.45,3.55-2.06,3-4.9.82.32.55,1.21,1.1,1.33,0-.27,0-1.09.55-1s.28.74.28,1.29c1.64-2.09-.14-4-1.84-5.65,1.71-.28,2-.9,1.42-2.64.9.15,2,.08,1.19,1.51a26.17,26.17,0,0,0,2.31-2.18c.84-1,1.41-2.06.7-2.7.56.08.91-.91.89-1.23a18.08,18.08,0,0,0,2.71-3.26l-.59.25c-1.34-2.05.61-1.64,1.38-3.09l.16.18c3.6-1.93.35-1.74,4.06-3.54l-1.27-.7c-2.29-2.12,3.42-1.5,3.7-3.94l-1.11.14c-.19-1.56,5.3-.18,6.31-.92.37-.05.12.58.07,1,3.28-1.45-1.3-1.41-.33-3.53,1.07.24,1.8,1.94,2.84.77,1.11-.18-.15-5.55,2.62-6.2-.91-.05-1.81-.11-1.71-1.32.66-1.5,4.92-2,3.66-4.6a.92.92,0,0,1,.67.09c.14-1.39,1.31-4,.58-5.31,4.83,1.7,2-7.79,5.92-5.35l1.77-3.39.35.33a3.85,3.85,0,0,0,.51-4.54c.55-.33.71.25.9.41,2.6-2.6,2.64-3,2.13-6.73l1.44.47c-.34-1.12,4.59-3.33,4.76-7.24a1,1,0,0,1,.4.66c.37-4.26,8.14-6.35,4-10.16l0-2.91c-1.93,2.76-1.85-1.53-3.29-.73.33-1.3,3-2.25,2.52-.69l-.36.1c2.24,1.83,2.78-3.23,4.45-2.28,2.86-5.93,7.09-11,9.83-16.57l-2.29-.29,1-1.89c.7-.3,1.87,0,1.15,1.39,1.47-.21.14-2.78-.28-3,2.07-2.36,1.83,2.14,2.26,1.33l.38-1.21-.35.15c-.39-1.3-1.21-1.77-.35-3.41.88-.88,1.48,0,1.75-.37.14.07.27,0,.35-.62l1.29-2.4-2,.28c-.28-1.44,1.13-2.29-1.17-1.95,1.75-.22,3-2.42,4-4.65s1.68-4.49,2.33-4.82c-.51-2,.16-3.56,1.09-5.4-.53.33-2.44-.14-1.55-1.68,3.46,2.14,2.85-2.32,6.07-2.57-2.26.47,1.45-4.86-1.83-4,.85-1.25,1.43.48,2.73-.21-.15-3.85,3.8-6.86,4.84-11.14-.47-.25-1.48.15-1.89-1l3.28-1.23c.06-.9-2.58-1.8-.31-2.64-.49.05-1.24.13-1.19-.47,2.68-3.56,3.66-7.85,4.87-12.06s2.63-8.35,6.26-11.75c-1.33.81-1.19,0-1-.84-.41.48-1.24-.41-2-.52l3-2.86c-1.69-1.22,1-3.77-.67-4.68V165c-1.69-2.11-5.38.57-8.06-.51,1.92,2.38-4.92,3.09-2.31,6.83-.75.4-.72-.78-1.45-.68,1,1,.94,1.93-.08,3.25l-.23-.26c-1.11,4.27-2.87,5.68-5.26,10.06l1.46.13c-.53.94-1,1-1.53,1.35,1.63,1.87,1.11-2.77,3-.94-3.18.37-2.57,7.06-6,6.83-.58,1.53,1.71.12,1.13,1.64l-1,.1.93.78a2.21,2.21,0,0,1-2.5.83c.17-.21.06-.76.1-1-1.46.93-1,3.78-1.52,4.11l1.07-1.27c-.78,4.47-3.85,9.11-3.77,13.77l.75-.05c-.09,3.52-1.66,2.18-2.51,5.74l-.1-.18a3.55,3.55,0,0,1-.16,2.83c-.37-1.14-2.07,1-2.41-.44-.16,3.8.28,2,1.66,5.18l-1.23.07c.61,1.14,1.07,1.4.62,3.18-.29-1.74-2,.39-2.52-1.63-3.72,2.51,0,6.15-4,6.3,2.11,2.84,2.89-2.31,3.1-1.15,1.25-.35,1.52,2.25.76,3.21-.55,1.09-4.44.28-5.63,3.07.14-.27-.07-.38.07-.65-1.18.71.05,2.48-1.7,3.21,1.36,1.49-.86,1.6,1.2,2.8l.68-2.77c-.1,1.69,1.8,4.22-.53,6a4.74,4.74,0,0,1-.68-2c-1,.4-.2,1.53-1.19,1.94-2-1.21,1-3.29,0-5.59-1.25.32.22,3.63-1.76,1.77,2.46,2.5-1.65,2.53-.27,5.46l-1.23-.73c.06.39.38,1.29.09,1.82l-1.2-1.78c.71,2.19-2.63,2.29-2.55,4.09,1.42-3,1.87.08,3.42-.74-.1,4.54-4.37.52-5.8,4.93.1-.65,1.81-1.71,2-.55a5.49,5.49,0,0,1-2.57,1.59c-1.1,2.86,1.52.24,1.72,1.79-2,.15,0,1.66-.16,3.11l-1.29-.65c-2.41,2.68,2.26,2.2-.17,4.48l-1.18-2.1-.28,1.69-1.31-1.06c.27,2.14-.28,2.48-1.49,3.81a2,2,0,0,1,1.54,2.82c-1.25.53-.93-1.16-1.78.86-.56-.86-1.31-1.87.31-2.09-.37-.31-.58-.86-.94-1.16-1.39.54-1.53,2.4-1.89,3.1a1.56,1.56,0,0,1,.7-.59l.26,3.74c-.72.18-.91-.38-1.1-.93-.17.64.21,1.35-.13,2.24-.92-.78-2-1.31-1.86-2.75l-.3,3.26c-.55-.07-2,.67-2.17.12-1.41,1.11,0,4.69-1.89,6.15a1.33,1.33,0,0,1,.13,1c-1.26,1.68-3.43,2.53-3.29,5.47l-2.52.13c-.57,1.9,3.24-.27,2.3,2.9-.61,2.29-2-.2-2.9.18.32,1.51,1.15,4.33-1.41,5.21C358,294.88,358.57,294.58,358.78,293.95Zm-12.19,20.42c0-.55-.24-1.84.66-1.63C348.31,314.11,347.43,314,346.59,314.37Zm-19.3,30.85c-.14-.57.4-.81,1.2-.93A1.69,1.69,0,0,1,327.28,345.22ZM252,415.53a.37.37,0,0,0,0-.08C253.22,415.52,252.79,415.48,252,415.53Zm-2.34.25a.46.46,0,0,0,.12.6c0-.4.47-.61,1-.73C250.52,415.37,250.15,415.23,249.65,415.78ZM401.89,240.57l-.52.23C401.38,239.75,401.62,240.15,401.89,240.57Z" transform="translate(-168.04 -162.57)"/><path class="cls-1" d="M328.42,340.8a2.14,2.14,0,0,1,.73.35C329.08,340.85,328.87,340.67,328.42,340.8Z" transform="translate(-168.04 -162.57)"/><path class="cls-1" d="M365.65,280.84l0-.05a.91.91,0,0,0-.19-.19Z" transform="translate(-168.04 -162.57)"/><path class="cls-1" d="M273.78,389.39a2,2,0,0,1,1.11.17C274.72,389.25,274.39,389.12,273.78,389.39Z" transform="translate(-168.04 -162.57)"/><path class="cls-1" d="M239.19,422.22c.43-.27.86-.52,1.28-.81a1.6,1.6,0,0,1-1.4,0C239.2,421.68,239.62,422.06,239.19,422.22Z" transform="translate(-168.04 -162.57)"/><path class="cls-1" d="M224.84,417c-.16.22-.42.11-.57.33l.21.64C225.32,417.73,225.77,417,224.84,417Z" transform="translate(-168.04 -162.57)"/><path class="cls-1" d="M236.45,418c-.47-1.13-1.2-.47-2.08,0a.54.54,0,0,1,.17-.05C234.74,419.73,235.6,418.88,236.45,418Z" transform="translate(-168.04 -162.57)"/><path class="cls-1" d="M234.16,418.17a2.47,2.47,0,0,1-.87.3C233.36,419.16,233.68,418.5,234.16,418.17Z" transform="translate(-168.04 -162.57)"/><path class="cls-1" d="M247.29,417.59c-.56-.12.28,1.57-.16,1.2C247.19,420.44,249.45,415.86,247.29,417.59Z" transform="translate(-168.04 -162.57)"/><polygon class="cls-1" points="66.45 251.87 67.23 253.2 67.39 251.88 66.45 251.87"/><path class="cls-1" d="M242.15,413l-1.61.13c.11.23,0,.44-.23.62C241.24,413.51,242.34,413.44,242.15,413Z" transform="translate(-168.04 -162.57)"/><path class="cls-1" d="M240.31,413.79a1.81,1.81,0,0,0-1.11.65A4,4,0,0,0,240.31,413.79Z" transform="translate(-168.04 -162.57)"/><path class="cls-1" d="M236.38,413.38l.54.16c.36-.07.72-.16,1.07-.24C237.46,413.35,236.92,413.37,236.38,413.38Z" transform="translate(-168.04 -162.57)"/><path class="cls-1" d="M257.77,406.76l1.35-1.14c-.07-.54-.63-.62-1.11-.16C257.8,406,257.32,406.42,257.77,406.76Z" transform="translate(-168.04 -162.57)"/><path class="cls-1" d="M251.4,405.17c.54.1.71.4,1.14.74l-.72-1.72Z" transform="translate(-168.04 -162.57)"/><path class="cls-1" d="M255.63,402.74c-.07-.54,1.51-2.39-.32-1.37C255.39,401.9,254.08,403,255.63,402.74Z" transform="translate(-168.04 -162.57)"/><polygon class="cls-1" points="110.69 229.66 110.35 229.92 112.09 232.44 110.69 229.66"/><path class="cls-1" d="M292,373.19c-2,.66.84,1.75-1.1,2.15.1.85,1.59-.33,1.62.45C293,374.45,293.75,374.39,292,373.19Z" transform="translate(-168.04 -162.57)"/><path class="cls-1" d="M292.56,375.78a4.14,4.14,0,0,0-.17.74A1.88,1.88,0,0,0,292.56,375.78Z" transform="translate(-168.04 -162.57)"/><polygon class="cls-1" points="263.69 4.06 264.69 2.99 263.46 3.5 263.69 4.06"/><path class="cls-1" d="M430.3,163.56l2,.27-1.46-1.26C430.79,162.88,430.79,163.47,430.3,163.56Z" transform="translate(-168.04 -162.57)"/><path class="cls-1" d="M341.37,315l.33.35c.53.13.73-.08,1.13-.52Z" transform="translate(-168.04 -162.57)"/><polygon class="cls-1" points="184.1 139.05 183.91 139.28 185.69 139.77 184.1 139.05"/><path class="cls-1" d="M357.84,288.22c-.37.46-.39,1.25-.76,1.72C357.47,288.68,359.8,289.21,357.84,288.22Z" transform="translate(-168.04 -162.57)"/><path class="cls-1" d="M415.4,249.33c8.29,3.52,16.33,7.44,24.37,11.37s16,8.05,23.81,12.32l5.9,3.16q3,1.56,5.87,3.21L487,285.95c1.94,1.1,3.9,2.17,5.83,3.29l5.77,3.39,11.53,6.78,8.67,5.09-8.59,5.57c-4.1,2.66-8.3,5.15-12.47,7.7l-12.52,7.62c-4.2,2.5-8.44,4.93-12.66,7.39s-8.43,4.94-12.73,7.28L447,347.18l-13,6.89c-8.74,4.45-17.45,8.94-26.47,12.93l-.37-.59L432,350.77l24.85-15.54,49.7-31.06v1.18l-45.8-27.66-22.89-13.84L415,249.93Z" transform="translate(-168.04 -162.57)"/><path class="cls-1" d="M271.11,367.45c-8.26-3.52-16.28-7.44-24.3-11.37S230.9,348,223.09,343.75l-5.88-3.16q-3-1.56-5.85-3.21l-11.63-6.55c-1.93-1.1-3.89-2.17-5.81-3.29l-5.75-3.39-11.49-6.78L168,312.29l8.55-5.57c4.08-2.66,8.27-5.15,12.42-7.7l12.47-7.62c4.18-2.5,8.41-4.93,12.61-7.39s8.4-4.94,12.68-7.28l12.79-7.12,12.93-6.89c8.71-4.45,17.39-8.94,26.39-12.94l.37.59L254.56,266,229.8,281.55l-49.53,31.06v-1.18l45.64,27.66,22.82,13.84,22.76,13.92Z" transform="translate(-168.04 -162.57)"/></g></svg>